<?xml version="1.0" encoding="UTF-8"?>
<!DOCTYPE svg PUBLIC "-//W3C//DTD SVG 1.1//EN" "http://www.w3.org/Graphics/SVG/1.1/DTD/svg11.dtd">
<!-- Creator: CorelDRAW 2020 (64-Bit) -->
<svg xmlns="http://www.w3.org/2000/svg" xml:space="preserve" width="67.4729mm" height="26.645mm" version="1.1" style="shape-rendering:geometricPrecision; text-rendering:geometricPrecision; image-rendering:optimizeQuality; fill-rule:evenodd; clip-rule:evenodd"
viewBox="0 0 6746.22 2664.08"
 xmlns:xlink="http://www.w3.org/1999/xlink"
 xmlns:xodm="http://www.corel.com/coreldraw/odm/2003">
 <defs>
  <style type="text/css">
   <![CDATA[
    .fil0 {fill:#11375F}
    .fil1 {fill:#1B9AD6}
    .fil2 {fill:#11375F;fill-rule:nonzero}
    .fil3 {fill:#1B9AD6;fill-rule:nonzero}
   ]]>
  </style>
 </defs>
 <g id="Warstwa_x0020_1">
  <metadata id="CorelCorpID_0Corel-Layer"/>
  <g id="_1341717866144">
   <g>
    <polygon class="fil0" points="346.53,399.94 769.79,0 769.79,2438.47 346.53,2238.51 "/>
    <polygon class="fil0" points="-0,1040.57 238.09,815.6 238.09,2187.26 -0,2074.78 "/>
    <polygon class="fil1" points="1293.03,399.94 869.77,0 869.77,2438.47 1293.03,2238.51 "/>
    <polygon class="fil1" points="1639.56,1040.57 1401.47,815.6 1401.47,2187.26 1639.56,2074.78 "/>
    <polygon class="fil0" points="-0,2174.77 819.78,2564.09 1639.56,2174.77 819.78,2664.08 "/>
   </g>
   <path class="fil2" d="M2459.61 1040.57c65.6,0 122.57,10.94 170.89,32.8 48.32,21.87 85.53,52.9 111.63,93.12 26.1,40.21 39.15,87.83 39.15,142.85 0,54.32 -13.06,101.76 -39.15,142.33 -26.11,40.56 -63.31,71.6 -111.63,93.12 -48.32,21.52 -105.29,32.27 -170.89,32.27l-149.21 0 0 204.23 -171.42 0 0 -740.71 320.63 0zm-9.53 396.81c51.5,0 90.65,-11.11 117.46,-33.32 26.81,-22.23 40.2,-53.79 40.2,-94.71 0,-41.61 -13.4,-73.54 -40.2,-95.75 -26.82,-22.23 -65.96,-33.33 -117.46,-33.33l-139.68 0 0 257.13 139.68 0z"/>
   <polygon class="fil2" points="2891.33,1212 3056.41,1212 3056.41,1781.29 2891.33,1781.29 "/>
   <path class="fil2" d="M3767.49 1498.76c0,2.11 -1.06,16.93 -3.18,44.44l-430.67 0c7.77,35.26 26.11,63.13 55.03,83.59 28.93,20.46 64.9,30.7 107.93,30.7 29.63,0 55.9,-4.41 78.83,-13.23 22.93,-8.82 44.27,-22.76 64.02,-41.8l87.83 95.23c-53.61,61.38 -131.92,92.07 -234.91,92.07 -64.19,0 -120.98,-12.53 -170.36,-37.56 -49.38,-25.05 -87.48,-59.79 -114.28,-104.23 -26.81,-44.44 -40.2,-94.88 -40.2,-151.32 0,-55.73 13.23,-105.99 39.67,-150.79 26.46,-44.8 62.79,-79.72 108.99,-104.76 46.21,-25.04 97.88,-37.56 155.03,-37.56 55.73,0 106.16,12 151.32,35.98 45.14,23.98 80.6,58.37 106.34,103.16 25.75,44.79 38.62,96.82 38.62,156.09zm-295.22 -170.37c-37.39,0 -68.79,10.59 -94.19,31.74 -25.4,21.17 -40.91,50.09 -46.55,86.78l280.42 0c-5.65,-35.98 -21.17,-64.73 -46.56,-86.25 -25.4,-21.52 -56.44,-32.27 -93.12,-32.27z"/>
   <path class="fil2" d="M4069.07 1789.76c-47.26,0 -93.48,-5.82 -138.62,-17.47 -45.15,-11.64 -81.13,-26.28 -107.93,-43.91l55.02 -118.51c25.4,16.23 56.08,29.46 92.06,39.68 35.98,10.23 71.26,15.34 105.82,15.34 69.84,0 104.75,-17.28 104.75,-51.84 0,-16.23 -9.52,-27.87 -28.57,-34.92 -19.05,-7.05 -48.32,-13.05 -87.83,-17.99 -46.56,-7.06 -85.01,-15.17 -115.34,-24.34 -30.34,-9.17 -56.61,-25.4 -78.84,-48.68 -22.22,-23.28 -33.33,-56.43 -33.33,-99.46 0,-35.97 10.41,-67.9 31.23,-95.76 20.81,-27.87 51.14,-49.55 91,-65.07 39.86,-15.53 86.95,-23.29 141.27,-23.29 40.21,0 80.25,4.41 120.1,13.23 39.85,8.82 72.84,20.99 98.93,36.5l-55.02 117.46c-50.08,-28.22 -104.75,-42.33 -164.01,-42.33 -35.27,0 -61.73,4.94 -79.37,14.82 -17.63,9.88 -26.45,22.58 -26.45,38.09 0,17.64 9.52,29.99 28.57,37.03 19.05,7.06 49.38,13.76 91.01,20.11 46.55,7.76 84.65,16.05 114.28,24.87 29.63,8.82 55.37,24.87 77.25,48.15 21.87,23.28 32.79,55.72 32.79,97.34 0,35.27 -10.58,66.67 -31.74,94.18 -21.16,27.52 -52.02,48.85 -92.59,64.02 -40.56,15.17 -88.71,22.76 -144.44,22.76z"/>
   <path class="fil2" d="M4806.61 1753.77c-16.23,12 -36.15,20.99 -59.79,26.99 -23.63,6 -48.49,9 -74.6,9 -67.72,0 -120.1,-17.29 -157.14,-51.85 -37.03,-34.56 -55.55,-85.36 -55.55,-152.38l0 -233.85 -87.83 0 0 -126.98 87.83 0 0 -138.62 165.07 0 0 138.62 141.79 0 0 126.98 -141.79 0 0 231.73c0,23.99 6.17,42.5 18.52,55.55 12.35,13.06 29.81,19.58 52.38,19.58 26.1,0 48.32,-7.05 66.66,-21.16l44.44 116.39z"/>
   <path class="fil2" d="M5152.62 1789.76c-59.96,0 -113.75,-12.53 -161.36,-37.56 -47.62,-25.05 -84.84,-59.79 -111.64,-104.23 -26.81,-44.44 -40.2,-94.88 -40.2,-151.32 0,-56.44 13.4,-106.87 40.2,-151.32 26.81,-44.44 64.02,-79.19 111.64,-104.23 47.61,-25.04 101.4,-37.56 161.36,-37.56 59.96,0 113.58,12.53 160.84,37.56 47.26,25.05 84.3,59.79 111.1,104.23 26.81,44.44 40.21,94.87 40.21,151.32 0,56.43 -13.41,106.87 -40.21,151.32 -26.81,44.44 -63.84,79.19 -111.1,104.23 -47.26,25.04 -100.88,37.56 -160.84,37.56zm0 -135.45c42.33,0 77.07,-14.29 104.23,-42.85 27.16,-28.58 40.73,-66.84 40.73,-114.81 0,-47.97 -13.58,-86.24 -40.73,-114.81 -27.17,-28.57 -61.9,-42.85 -104.23,-42.85 -42.32,0 -77.25,14.29 -104.75,42.85 -27.52,28.58 -41.27,66.84 -41.27,114.81 0,47.97 13.76,86.24 41.27,114.81 27.51,28.57 62.43,42.85 104.75,42.85z"/>
   <path class="fil3" d="M5629.86 1789.76c-28.93,0 -53.26,-9.88 -73.01,-29.64 -19.76,-19.75 -29.64,-44.44 -29.64,-74.07 0,-30.34 9.88,-54.85 29.64,-73.54 19.75,-18.7 44.08,-28.05 73.01,-28.05 28.93,0 53.26,9.35 73.02,28.05 19.75,18.69 29.63,43.2 29.63,73.54 0,29.63 -9.88,54.32 -29.63,74.07 -19.76,19.76 -44.09,29.64 -73.02,29.64z"/>
   <polygon class="fil3" points="5844.66,1212 6009.74,1212 6009.74,1781.29 5844.66,1781.29 "/>
   <path class="fil3" d="M6434.06 1789.76c-59.96,0 -113.75,-12.53 -161.36,-37.56 -47.62,-25.05 -84.84,-59.79 -111.64,-104.23 -26.81,-44.44 -40.2,-94.88 -40.2,-151.32 0,-56.44 13.4,-106.87 40.2,-151.32 26.81,-44.44 64.02,-79.19 111.64,-104.23 47.61,-25.04 101.4,-37.56 161.36,-37.56 59.96,0 113.58,12.53 160.84,37.56 47.26,25.05 84.3,59.79 111.1,104.23 26.81,44.44 40.21,94.87 40.21,151.32 0,56.43 -13.41,106.87 -40.21,151.32 -26.81,44.44 -63.84,79.19 -111.1,104.23 -47.26,25.04 -100.88,37.56 -160.84,37.56zm0 -135.45c42.33,0 77.07,-14.29 104.23,-42.85 27.16,-28.58 40.73,-66.84 40.73,-114.81 0,-47.97 -13.58,-86.24 -40.73,-114.81 -27.17,-28.57 -61.9,-42.85 -104.23,-42.85 -42.32,0 -77.25,14.29 -104.75,42.85 -27.52,28.58 -41.27,66.84 -41.27,114.81 0,47.97 13.76,86.24 41.27,114.81 27.51,28.57 62.43,42.85 104.75,42.85z"/>
  </g>
 </g>
</svg>
