<?xml version="1.0" encoding="UTF-8"?>
<!DOCTYPE svg PUBLIC "-//W3C//DTD SVG 1.1//EN" "http://www.w3.org/Graphics/SVG/1.1/DTD/svg11.dtd">
<!-- Creator: CorelDRAW 2020 (64-Bit) -->
<svg xmlns="http://www.w3.org/2000/svg" xml:space="preserve" width="46.6434mm" height="46.6436mm" version="1.1" style="shape-rendering:geometricPrecision; text-rendering:geometricPrecision; image-rendering:optimizeQuality; fill-rule:evenodd; clip-rule:evenodd" viewBox="0 0 1194.45 1194.45" xmlns:xlink="http://www.w3.org/1999/xlink" xmlns:xodm="http://www.corel.com/coreldraw/odm/2003">
	<defs>
		<style type="text/css">
			<![CDATA[
			.fil1 {fill:#3f3f3f;fill-rule:nonzero}
			.fil0 {fill:#3f3f3f;fill-rule:nonzero}
			]]>
		</style>
	</defs>
	<g id="Warstwa_x0020_1">
		<metadata id="CorelCorpID_0Corel-Layer" />
		<g id="_1794202645856">
			<path class="fil0" d="M916.61 41.75c54.59,-16.7 96.38,-15.43 119.25,7.43 75.67,75.67 -83.87,357.89 -356.34,630.34 -272.46,272.46 -554.68,432 -630.35,356.33 -22.84,-22.86 -24.11,-64.66 -7.41,-119.24 -49.25,113.35 -57,203.35 -12.14,248.21 102.3,102.3 439.36,-68.89 752.84,-382.37 313.48,-313.48 484.67,-650.53 382.37,-752.83 -44.86,-44.87 -134.86,-37.12 -248.22,12.13z" />
			<path class="fil1" d="M568.66 280.62c25.07,-13.85 43.28,-18.47 50.62,-11.14 19.22,19.22 -43.51,113.12 -140.1,209.7 -96.59,96.6 -190.48,159.32 -209.7,140.1 -7.34,-7.33 -2.71,-25.55 11.13,-50.61 -39.3,59.38 -55.62,105.88 -38.74,122.77 30.23,30.23 155.36,-45.91 279.52,-170.06 124.14,-124.14 200.28,-249.28 170.05,-279.51 -16.87,-16.89 -63.38,-0.57 -122.77,38.75z" />
		</g>
	</g>
</svg>
