<?xml version="1.0" encoding="UTF-8"?>
<!DOCTYPE svg PUBLIC "-//W3C//DTD SVG 1.1//EN" "http://www.w3.org/Graphics/SVG/1.1/DTD/svg11.dtd">
<!-- Creator: CorelDRAW 2020 (64-Bit) -->
<svg xmlns="http://www.w3.org/2000/svg" xml:space="preserve" width="108.372mm" height="46.6436mm" version="1.1" style="shape-rendering:geometricPrecision; text-rendering:geometricPrecision; image-rendering:optimizeQuality; fill-rule:evenodd; clip-rule:evenodd"
viewBox="0 0 10802.05 4649.22"
 xmlns:xlink="http://www.w3.org/1999/xlink"
 xmlns:xodm="http://www.corel.com/coreldraw/odm/2003">
 <defs>
  <style type="text/css">
   <![CDATA[
    .fil1 {fill:#E63331;fill-rule:nonzero}
    .fil0 {fill:#AAABAC;fill-rule:nonzero}
   ]]>
  </style>
 </defs>
 <g id="Warstwa_x0020_1">
  <metadata id="CorelCorpID_0Corel-Layer"/>
  <g id="_1794089327584">
   <path class="fil0" d="M7938.56 1066.55c130.11,0 240.92,12.45 332.54,37.24 91.65,24.87 166.1,64.22 223.44,118.15 57.38,53.95 98.93,123.71 124.54,209.34 25.73,85.62 38.56,190.01 38.56,313.27l0 441.72c0,123.32 -12.84,228.22 -38.56,314.65 -25.62,86.43 -67.16,156.62 -124.54,210.56 -57.34,53.94 -131.79,92.89 -223.44,116.82 -91.62,24.04 -202.43,35.99 -332.54,35.99l-793.59 0c-130.15,0 -240.58,-11.95 -331.3,-35.99 -90.79,-23.93 -164.79,-62.88 -222.15,-116.82 -57.37,-53.94 -99.31,-124.14 -125.81,-210.56 -26.58,-86.43 -39.84,-191.33 -39.84,-314.65l0 -441.72c0,-123.26 13.26,-227.65 39.84,-313.27 26.5,-85.63 68.44,-155.38 125.81,-209.34 57.35,-53.92 131.35,-93.28 222.15,-118.15 90.72,-24.79 201.15,-37.24 331.3,-37.24l793.59 0zm-1119.73 1091.51l0 0c0,66.77 5.52,122.87 16.69,168.18 11.12,45.38 29.56,81.38 55.22,107.88 25.65,26.57 60.33,45.4 104.01,56.53 43.65,11.12 98.86,16.65 165.65,16.65l762.75 0c66.75,0 122,-5.52 165.68,-16.65 43.65,-11.12 78.3,-29.95 103.98,-56.53 25.72,-26.5 44.06,-62.5 55.18,-107.88 11.12,-45.31 16.7,-101.41 16.7,-168.18l0 -385.25c0,-66.77 -5.57,-122.82 -16.7,-168.18 -11.12,-45.39 -29.46,-81.34 -55.18,-107.93 -25.69,-26.5 -60.33,-45.32 -103.98,-56.51 -43.68,-11.07 -98.93,-16.67 -165.68,-16.67l-762.75 0c-66.79,0 -122,5.59 -165.65,16.67 -43.68,11.18 -78.36,30 -104.01,56.51 -25.66,26.59 -44.1,62.54 -55.22,107.93 -11.16,45.36 -16.69,101.41 -16.69,168.18l0 385.25z"/>
   <path class="fil0" d="M4323.73 3155.17c9.36,0 13.99,4.67 13.99,14.01l0 65.42c0,9.34 -4.63,14.04 -13.99,14.04l-207.15 0c-16.59,0 -30.34,1.41 -41.25,4.26 -10.93,2.85 -19.63,7.56 -26.1,14.01 -6.51,6.49 -11.04,15.31 -13.64,26.47 -2.61,11.19 -3.88,24.79 -3.88,40.9l0 231.24c0,11.43 -5.72,17.13 -17.15,17.13l-76.3 0c-11.93,0 -17.9,-5.7 -17.9,-17.13l0 -252.29c0,-28.02 3.14,-52.03 9.35,-72.01 6.24,-19.99 16.47,-36.33 30.74,-49.07 14.28,-12.71 33.22,-22.05 56.86,-28.03 23.62,-5.97 53.05,-8.96 88.35,-8.96l218.05 0z"/>
   <path class="fil0" d="M4952.1 3155.17c26.47,0 48.38,2.23 65.78,6.63 17.41,4.44 31.16,11.67 41.3,21.81 10.13,10.09 17.22,23.34 21.41,39.73 4.16,16.34 6.22,36.19 6.22,59.55l0 73.96c0,16.63 -3.66,28.2 -10.89,34.65 -7.28,6.53 -18.44,9.76 -33.47,9.76l-393.24 0 0 18.68c0,24.41 5.84,42.03 17.54,52.95 11.68,10.88 34.36,16.35 68.12,16.35l324.69 0c9.36,0 13.99,4.66 13.99,14.01l0 65.42c0,9.33 -4.63,14 -13.99,14l-335.6 0c-35.31,0 -64.77,-2.85 -88.4,-8.55 -23.63,-5.73 -42.55,-14.93 -56.82,-27.64 -14.28,-12.74 -24.55,-29.09 -30.76,-49.07 -6.23,-19.98 -9.36,-43.99 -9.36,-72.01l0 -112.15c0,-28.02 3.13,-52.03 9.36,-72.01 6.21,-19.96 16.48,-36.33 30.76,-49.07 14.27,-12.71 33.19,-22.05 56.82,-27.99 23.63,-6.01 53.1,-9 88.4,-9l228.15 0zm-302.9 176.78l0 0 315.35 0c8.82,0 13.26,-4.44 13.26,-13.26l0 -32.73c0,-16.03 -3.38,-27.47 -10.13,-34.23 -6.75,-6.74 -19.24,-10.14 -37.38,-10.14l-195.44 0c-33.76,0 -56.44,5.32 -68.12,15.97 -11.7,10.69 -17.54,28.4 -17.54,53.34l0 21.05z"/>
   <path class="fil0" d="M5818.73 3155.17c9.34,0 14,4.67 14,14.01l0 62.33c0,9.34 -4.66,13.97 -14,13.97l-351.19 0c-16.07,0 -27.27,2.98 -33.48,8.96 -6.22,6.01 -9.34,14.69 -9.34,26.1l0 11.68c0,10.4 3.12,18.57 9.34,24.55 6.21,5.94 17.41,8.92 33.48,8.92l262.42 0c43.61,0 74.76,9.1 93.44,27.23 18.72,18.2 28.06,43.93 28.06,77.1l0 43.61c0,17.13 -2.09,32.41 -6.25,45.98 -4.16,13.5 -11.09,24.9 -20.64,34.24 -9.61,9.34 -22.18,16.48 -37.77,21.42 -15.56,4.95 -34.79,7.39 -57.62,7.39l-398.63 0c-9.36,0 -14.04,-4.67 -14.04,-14l0 -62.3c0,-9.34 4.68,-14 14.04,-14l369.07 0c16.07,0 27.36,-2.86 33.86,-8.59 6.49,-5.7 9.72,-15.31 9.72,-28.81l0 -21.01c0,-10.38 -3.23,-18.41 -9.72,-24.15 -6.5,-5.69 -17.79,-8.54 -33.86,-8.54l-261.63 0c-43.59,0 -74.79,-8.96 -93.45,-26.85 -18.72,-17.93 -28.04,-44.03 -28.04,-78.3l0 -34.24c0,-16.07 2.07,-30.77 6.23,-44.03 4.16,-13.22 11.04,-24.51 20.64,-33.85 9.59,-9.35 22.18,-16.46 37.77,-21.4 15.58,-4.94 34.74,-7.42 57.59,-7.42l380 0z"/>
   <path class="fil0" d="M6143.44 3155.17l0 -102.78c0,-11.4 5.69,-17.13 17.13,-17.13l77.09 0c11.4,0 17.13,5.73 17.13,17.13l0 102.78 136.26 0c9.34,0 14.01,4.67 14.01,14.01l0 63.87c0,9.34 -4.67,14 -14.01,14l-136.26 0 0 180.66c0,21.8 4.4,37.74 13.23,47.86 8.82,10.14 26.19,15.18 52.15,15.18l75.55 0c9.34,0 14,4.67 14,14.01l0 63.87c0,9.33 -4.66,14 -14,14l-94.23 0c-31.14,0 -56.82,-2.85 -77.09,-8.55 -20.19,-5.73 -36.47,-14.79 -48.66,-27.26 -12.22,-12.47 -20.63,-28.54 -25.31,-48.28 -4.66,-19.71 -7,-43.34 -7,-70.84l0 -180.66 -73.97 0c-9.34,0 -14.04,-4.66 -14.04,-14l0 -63.87c0,-9.34 4.7,-14.01 14.04,-14.01l73.97 0z"/>
   <path class="fil0" d="M6974.24 3155.17c34.79,0 64.11,2.99 87.98,8.96 23.89,5.98 42.99,15.32 57.23,28.03 14.29,12.74 24.56,29.08 30.77,49.07 6.22,19.97 9.34,43.99 9.34,72.01l0 207.14c0,12.46 -0.89,22.7 -2.78,30.77 -1.74,8.03 -4.87,14.38 -9.3,19.09 -4.4,4.63 -10.24,7.89 -17.51,9.72 -7.25,1.82 -16.59,2.71 -28.02,2.71l-370.62 0c-22.91,0 -41.96,-2.2 -57.28,-6.63 -15.31,-4.4 -27.61,-10.98 -36.95,-19.85 -9.34,-8.83 -15.97,-20.22 -19.88,-34.27 -3.89,-14.01 -5.84,-30.63 -5.84,-49.83l0 -37.36c0,-16.08 1.95,-30.5 5.84,-43.24 3.91,-12.7 10.54,-23.48 19.88,-32.3 9.34,-8.83 21.64,-15.42 36.95,-19.86 15.32,-4.4 34.38,-6.63 57.28,-6.63l316.88 0 0 -14.8c0,-12.43 -1.31,-23.07 -3.88,-31.94 -2.61,-8.79 -7.01,-15.93 -13.26,-21.39 -6.22,-5.45 -14.77,-9.48 -25.69,-12.08 -10.92,-2.58 -24.9,-3.82 -42.03,-3.82l-325.47 0c-9.37,0 -14.04,-4.73 -14.04,-14.07l0 -65.42c0,-9.34 4.67,-14.01 14.04,-14.01l336.35 0zm51.4 341.85l0 0c8.28,0 14.11,-1.95 17.52,-5.84 3.36,-3.91 5.04,-10.78 5.04,-20.63l0 -68.55 -284.98 0c-16.1,0 -27.37,3.27 -33.86,9.76 -6.52,6.49 -9.75,15.97 -9.75,28.4l0 16.38c0,14.01 3.23,24.25 9.75,30.74 6.49,6.49 17.76,9.75 33.86,9.75l262.42 0z"/>
   <path class="fil0" d="M7490.5 3155.17c11.4,0 17.13,5.97 17.13,17.93l0 225.02c0,16.63 1,30.36 3.09,41.28 2.09,10.88 5.97,19.61 11.67,26.07 5.74,6.53 13.78,11.16 24.14,14.01 10.41,2.88 24.14,4.29 41.28,4.29l200.13 0c17.13,0 31.15,-1.41 42.03,-4.29 10.91,-2.85 19.61,-7.49 26.1,-14.01 6.49,-6.46 11.02,-15.18 13.64,-26.07 2.57,-10.91 3.88,-24.65 3.88,-41.28l0 -225.02c0,-11.96 5.7,-17.93 17.13,-17.93l76.3 0c11.4,0 17.13,5.97 17.13,17.93l0 252.29c0,28.02 -3.09,52.02 -9.34,72.01 -6.21,19.98 -16.48,36.33 -30.76,49.07 -14.28,12.71 -33.34,21.91 -57.21,27.64 -23.9,5.7 -53.23,8.55 -88.01,8.55l-217.22 0c-35.31,0 -64.77,-2.85 -88.39,-8.55 -23.62,-5.73 -42.58,-14.93 -56.83,-27.64 -14.28,-12.74 -24.55,-29.09 -30.77,-49.07 -6.21,-19.98 -9.34,-43.99 -9.34,-72.01l0 -252.29c0,-11.96 5.98,-17.93 17.93,-17.93l76.3 0z"/>
   <path class="fil0" d="M8637.45 3155.17c9.35,0 13.98,4.67 13.98,14.01l0 65.42c0,9.34 -4.63,14.04 -13.98,14.04l-207.13 0c-16.63,0 -30.36,1.41 -41.28,4.26 -10.89,2.85 -19.61,7.56 -26.07,14.01 -6.49,6.49 -11.06,15.31 -13.64,26.47 -2.61,11.19 -3.88,24.79 -3.88,40.9l0 231.24c0,11.43 -5.74,17.13 -17.13,17.13l-76.3 0c-11.99,0 -17.93,-5.7 -17.93,-17.13l0 -252.29c0,-28.02 3.09,-52.03 9.35,-72.01 6.21,-19.99 16.48,-36.33 30.76,-49.07 14.25,-12.71 33.21,-22.05 56.83,-28.03 23.59,-5.97 53.06,-8.96 88.38,-8.96l218.02 0z"/>
   <path class="fil0" d="M9215.18 3155.17c34.79,0 64.11,2.99 88.01,8.96 23.86,5.98 42.95,15.32 57.24,28.03 14.24,12.74 24.51,29.08 30.73,49.07 6.21,19.97 9.34,43.99 9.34,72.01l0 207.14c0,12.46 -0.9,22.7 -2.78,30.77 -1.75,8.03 -4.87,14.38 -9.31,19.09 -4.4,4.63 -10.23,7.89 -17.51,9.72 -7.25,1.82 -16.59,2.71 -28.02,2.71l-370.62 0c-22.91,0 -41.96,-2.2 -57.24,-6.63 -15.32,-4.4 -27.64,-10.98 -36.98,-19.85 -9.34,-8.83 -15.97,-20.22 -19.89,-34.27 -3.88,-14.01 -5.84,-30.63 -5.84,-49.83l0 -37.36c0,-16.08 1.96,-30.5 5.84,-43.24 3.92,-12.7 10.55,-23.48 19.89,-32.3 9.34,-8.83 21.66,-15.42 36.98,-19.86 15.28,-4.4 34.34,-6.63 57.24,-6.63l316.88 0 0 -14.8c0,-12.43 -1.31,-23.07 -3.88,-31.94 -2.61,-8.79 -7.01,-15.93 -13.26,-21.39 -6.21,-5.45 -14.76,-9.48 -25.68,-12.08 -10.89,-2.58 -24.9,-3.82 -42.03,-3.82l-325.47 0c-9.38,0 -14.04,-4.73 -14.04,-14.07l0 -65.42c0,-9.34 4.66,-14.01 14.04,-14.01l336.35 0zm51.4 341.85l0 0c8.27,0 14.14,-1.95 17.51,-5.84 3.37,-3.91 5.04,-10.78 5.04,-20.63l0 -68.55 -284.97 0c-16.11,0 -27.37,3.27 -33.86,9.76 -6.53,6.49 -9.76,15.97 -9.76,28.4l0 16.38c0,14.01 3.23,24.25 9.76,30.74 6.49,6.49 17.75,9.75 33.86,9.75l262.42 0z"/>
   <path class="fil0" d="M10046.02 3155.17c34.79,0 64.11,2.99 88.01,8.96 23.86,5.98 42.92,15.32 57.23,28.03 14.25,12.74 24.52,29.08 30.74,49.07 6.25,19.97 9.37,43.99 9.37,72.01l0 252.29c0,11.43 -5.73,17.13 -17.16,17.13l-76.3 0c-11.4,0 -17.13,-5.7 -17.13,-17.13l0 -225.81c0,-16.07 -1.04,-29.7 -3.09,-40.86 -2.09,-11.16 -6.12,-19.99 -12.09,-26.48 -5.94,-6.49 -14.15,-11.16 -24.52,-14 -10.37,-2.85 -23.86,-4.27 -40.48,-4.27l-207.14 0c-16.63,0 -30.36,1.42 -41.28,4.27 -10.89,2.84 -19.61,7.52 -26.07,14 -6.49,6.49 -11.06,15.32 -13.64,26.48 -2.61,11.15 -3.88,24.79 -3.88,40.86l0 225.81c0,11.43 -5.73,17.13 -17.13,17.13l-76.3 0c-11.99,0 -17.92,-5.7 -17.92,-17.13l0 -252.29c0,-28.02 3.08,-52.03 9.34,-72.01 6.21,-19.99 16.48,-36.33 30.76,-49.07 14.25,-12.71 33.21,-22.05 56.83,-28.03 23.59,-5.97 53.06,-8.96 88.42,-8.96l223.41 0z"/>
   <path class="fil0" d="M10535.79 3155.17l0 -102.78c0,-11.4 5.7,-17.13 17.13,-17.13l77.06 0c11.43,0 17.13,5.73 17.13,17.13l0 102.78 136.26 0c9.34,0 14.04,4.67 14.04,14.01l0 63.87c0,9.34 -4.7,14 -14.04,14l-136.26 0 0 180.66c0,21.8 4.4,37.74 13.26,47.86 8.82,10.14 26.2,15.18 52.16,15.18l75.54 0c9.34,0 13.97,4.67 13.97,14.01l0 63.87c0,9.33 -4.63,14 -13.97,14l-94.22 0c-31.15,0 -56.83,-2.85 -77.09,-8.55 -20.26,-5.73 -36.47,-14.79 -48.66,-27.26 -12.22,-12.47 -20.67,-28.54 -25.31,-48.28 -4.7,-19.71 -7.01,-43.34 -7.01,-70.84l0 -180.66 -73.96 0c-9.38,0 -14.05,-4.66 -14.05,-14l0 -63.87c0,-9.34 4.67,-14.01 14.05,-14.01l73.96 0z"/>
   <path class="fil0" d="M3567.76 162.52c212.49,-64.99 375.15,-60.05 464.16,28.92 294.52,294.52 -326.47,1393.01 -1386.99,2453.52 -1060.51,1060.5 -2159.02,1681.48 -2453.55,1386.95 -88.92,-88.97 -93.84,-251.67 -28.86,-464.13 -191.72,441.19 -221.85,791.52 -47.24,966.13 398.19,398.2 1710.14,-268.16 2930.3,-1488.32 1220.17,-1220.17 1886.51,-2532.1 1488.32,-2930.29 -174.61,-174.63 -524.92,-144.5 -966.14,47.22z"/>
   <path class="fil0" d="M3934.76 2428.83l0 378.93c0,37.71 19.66,56.53 59.08,56.53l269.67 0c37.62,0 56.5,-18.82 56.5,-56.53l0 -908.62c-114.78,174.13 -243.75,351.57 -385.25,529.7z"/>
   <path class="fil0" d="M6048.39 1066.57l-269.7 0c-37.64,0 -56.49,18.85 -56.49,56.51l0 1340.53c0,17.17 -6.87,25.73 -20.54,25.73l-23.1 0c-15.42,0 -26.58,-6.01 -33.41,-17.99l-947.96 -1243.62c-23.1,51.09 -48.34,103.84 -76.12,158.47 -35.73,70.36 -74.59,141.89 -116.22,214.33l850.15 1112.22c25.65,34.27 48.34,61.26 68.01,80.9 19.69,19.75 39.8,34.65 60.37,44.98 20.53,10.27 44.06,17.1 70.64,20.53 26.5,3.44 59.44,5.12 98.86,5.12l220.87 0c78.73,0 136.94,-18.34 174.65,-55.22 37.63,-36.81 56.49,-107.41 56.49,-211.87l0 -1474.12c0,-37.66 -18.86,-56.51 -56.49,-56.51z"/>
   <path class="fil1" d="M2213.42 1092.27c97.57,-53.91 168.47,-71.88 197.02,-43.36 74.8,74.83 -169.34,440.29 -545.31,816.21 -375.97,376 -741.43,620.12 -816.21,545.32 -28.56,-28.53 -10.55,-99.45 43.32,-196.99 -152.98,231.13 -216.5,412.13 -150.8,477.85 117.65,117.65 604.73,-178.7 1087.98,-661.91 483.21,-483.21 779.54,-970.29 661.87,-1087.95 -65.68,-65.73 -246.71,-2.21 -477.86,150.82z"/>
   <path class="fil1" d="M10477.69 2864.28l284.08 0c22.26,0 40.28,-18.03 40.28,-40.29l0 -284.11c0,-22.25 -18.02,-40.28 -40.28,-40.28l-284.08 0c-22.25,0 -40.32,18.03 -40.32,40.28l0 284.11c0,22.26 18.07,40.29 40.32,40.29z"/>
   <path class="fil0" d="M10243.98 2823.96l0 -284.08 0 -40.28 -538.55 0c-66.75,0 -122,-5.53 -165.68,-16.69 -43.65,-11.13 -78.3,-29.95 -103.98,-56.53 -25.72,-26.51 -44.13,-62.47 -55.18,-107.82 -11.23,-45.39 -16.7,-102.33 -16.7,-170.81l0 -1024.7c0,-37.62 -18.88,-56.51 -56.52,-56.51l-277.36 0c-39.46,0 -59.1,18.89 -59.1,56.51l0 1063.21c0,123.28 13.26,228.22 39.8,314.65 26.5,86.47 68.51,156.62 125.88,210.56 57.28,53.94 131.35,92.89 222.11,116.82 90.76,24.04 201.19,35.99 331.3,35.99l553.97 0 0 -40.32z"/>
  </g>
 </g>
</svg>
